<svg width="56" height="84" viewBox="0 0 56 84" fill="none" xmlns="http://www.w3.org/2000/svg">
<path d="M11.2 84L15.4 73.4531C15.82 72.375 16.4967 71.5195 17.43 70.8867C18.3633 70.2539 19.4133 69.9375 20.58 69.9375H25.2V58.6172C18.06 58.3828 12.075 57.3281 7.245 55.4531C2.415 53.5781 0 51.375 0 48.8438C0 46.125 2.73 43.8047 8.19 41.8828C13.65 39.9609 20.2533 39 28 39C35.7933 39 42.4083 39.9609 47.845 41.8828C53.2817 43.8047 56 46.125 56 48.8438C56 51.375 53.585 53.5781 48.755 55.4531C43.925 57.3281 37.94 58.3828 30.8 58.6172V69.9375H35.42C36.54 69.9375 37.5783 70.2539 38.535 70.8867C39.4917 71.5195 40.18 72.375 40.6 73.4531L44.8 84H39.2L35.84 75.5625H20.16L16.8 84H11.2Z" fill="white"/>
<mask id="path-2-outside-1_185_12" maskUnits="userSpaceOnUse" x="12" y="0" width="33" height="49" fill="black">
<rect fill="white" x="12" width="33" height="49"/>
<path d="M38.8437 39.4545H17.3073V9.54545H38.8437M38.8437 1H17.3073C14.9167 1 13 2.90136 13 5.27273V43.7273C13 44.8605 13.4538 45.9473 14.2616 46.7485C15.0693 47.5498 16.1649 48 17.3073 48H38.8437C39.986 48 41.0816 47.5498 41.8894 46.7485C42.6971 45.9473 43.1509 44.8605 43.1509 43.7273V5.27273C43.1509 2.90136 41.2127 1 38.8437 1Z"/>
</mask>
<path d="M38.8437 39.4545H17.3073V9.54545H38.8437M38.8437 1H17.3073C14.9167 1 13 2.90136 13 5.27273V43.7273C13 44.8605 13.4538 45.9473 14.2616 46.7485C15.0693 47.5498 16.1649 48 17.3073 48H38.8437C39.986 48 41.0816 47.5498 41.8894 46.7485C42.6971 45.9473 43.1509 44.8605 43.1509 43.7273V5.27273C43.1509 2.90136 41.2127 1 38.8437 1Z" fill="white"/>
<path d="M17.3073 39.4545H16.3073V40.4545H17.3073V39.4545ZM17.3073 9.54545V8.54545H16.3073V9.54545H17.3073ZM13 43.7273H12H13ZM38.8437 38.4545H17.3073V40.4545H38.8437V38.4545ZM18.3073 39.4545V9.54545H16.3073V39.4545H18.3073ZM17.3073 10.5455H38.8437V8.54545H17.3073V10.5455ZM38.8437 0H17.3073V2H38.8437V0ZM17.3073 0C14.3721 0 12 2.3415 12 5.27273H14C14 3.46123 15.4614 2 17.3073 2V0ZM12 5.27273V43.7273H14V5.27273H12ZM12 43.7273C12 45.1283 12.5611 46.4703 13.5573 47.4585L14.9658 46.0386C14.3465 45.4242 14 44.5926 14 43.7273H12ZM13.5573 47.4585C14.5532 48.4464 15.9023 49 17.3073 49V47C16.4275 47 15.5855 46.6533 14.9658 46.0386L13.5573 47.4585ZM17.3073 49H38.8437V47H17.3073V49ZM38.8437 49C40.2487 49 41.5977 48.4464 42.5936 47.4585L41.1851 46.0386C40.5655 46.6533 39.7234 47 38.8437 47V49ZM42.5936 47.4585C43.5898 46.4703 44.1509 45.1283 44.1509 43.7273H42.1509C42.1509 44.5926 41.8045 45.4242 41.1851 46.0386L42.5936 47.4585ZM44.1509 43.7273V5.27273H42.1509V43.7273H44.1509ZM44.1509 5.27273C44.1509 2.33826 41.7541 0 38.8437 0V2C40.6713 2 42.1509 3.46447 42.1509 5.27273H44.1509Z" fill="#F84C0A" mask="url(#path-2-outside-1_185_12)"/>
<path d="M24.59 16.59C24.8223 16.3563 25.1088 16.1836 25.4239 16.0873C25.739 15.991 26.073 15.9741 26.3963 16.038C26.7195 16.1019 27.022 16.2447 27.2768 16.4536C27.5315 16.6626 27.7307 16.9313 27.8566 17.2358C27.9825 17.5403 28.0313 17.8712 27.9985 18.199C27.9657 18.5269 27.8524 18.8416 27.6687 19.1151C27.4849 19.3887 27.2365 19.6126 26.9454 19.7669C26.6542 19.9213 26.3295 20.0014 26 20H17M27.59 31.41C27.8223 31.6437 28.1088 31.8163 28.4239 31.9126C28.739 32.0089 29.073 32.0259 29.3963 31.962C29.7195 31.8981 30.022 31.7553 30.2768 31.5463C30.5315 31.3374 30.7307 31.0687 30.8566 30.7642C30.9825 30.4597 31.0313 30.1288 30.9985 29.8009C30.9657 29.473 30.8524 29.1584 30.6687 28.8848C30.4849 28.6113 30.2365 28.3874 29.9454 28.233C29.6542 28.0786 29.3295 27.9986 29 28H17M32.73 19.73C33.0208 19.4399 33.3787 19.2259 33.7719 19.107C34.1652 18.9881 34.5816 18.9679 34.9845 19.0483C35.3874 19.1286 35.7642 19.307 36.0817 19.5677C36.3993 19.8283 36.6477 20.1632 36.805 20.5427C36.9623 20.9222 37.0236 21.3346 36.9836 21.7434C36.9436 22.1523 36.8035 22.545 36.5756 22.8868C36.3477 23.2286 36.0391 23.509 35.6771 23.7031C35.3151 23.8973 34.9108 23.9992 34.5 24H17" stroke="white" stroke-width="2" stroke-linecap="round" stroke-linejoin="round"/>
</svg>
