<svg width="22" height="24" viewBox="0 0 22 24" fill="none" xmlns="http://www.w3.org/2000/svg">
<path d="M17.4193 8.22118C17.4193 6.4386 16.7554 4.72905 15.5737 3.46859C14.392 2.20812 12.7893 1.5 11.1182 1.5C9.447 1.5 7.84429 2.20812 6.66261 3.46859C5.48092 4.72905 4.81706 6.4386 4.81706 8.22118C4.81706 16.0626 1.6665 18.3029 1.6665 18.3029H20.5698C20.5698 18.3029 17.4193 16.0626 17.4193 8.22118Z" stroke="#A1A7B1" stroke-width="2" stroke-linecap="round" stroke-linejoin="round"/>
<path d="M12.9349 21.4531C12.7503 21.7714 12.4853 22.0357 12.1664 22.2192C11.8475 22.4029 11.4861 22.4996 11.1181 22.4996C10.7501 22.4996 10.3886 22.4029 10.0698 22.2192C9.75096 22.0357 9.48589 21.7714 9.30127 21.4531" stroke="#A1A7B1" stroke-width="2" stroke-linecap="round" stroke-linejoin="round"/>
</svg>
