<svg width="28" height="28" viewBox="0 0 28 28" fill="none" xmlns="http://www.w3.org/2000/svg">
<path d="M11.6667 24.5003C12.311 24.5003 12.8333 23.978 12.8333 23.3337C12.8333 22.6893 12.311 22.167 11.6667 22.167C11.0223 22.167 10.5 22.6893 10.5 23.3337C10.5 23.978 11.0223 24.5003 11.6667 24.5003Z" stroke="#A1A7B1" stroke-width="1.5" stroke-linecap="round" stroke-linejoin="round"/>
<path d="M21.0002 24.5003C21.6445 24.5003 22.1668 23.978 22.1668 23.3337C22.1668 22.6893 21.6445 22.167 21.0002 22.167C20.3558 22.167 19.8335 22.6893 19.8335 23.3337C19.8335 23.978 20.3558 24.5003 21.0002 24.5003Z" stroke="#A1A7B1" stroke-width="1.5" stroke-linecap="round" stroke-linejoin="round"/>
<path d="M2.3335 3.5H6.41683C6.41683 3.5 6.89859 5.63317 7.20728 7C7.82409 9.73115 8.67124 13.4822 9.16825 15.6829C9.40851 16.7467 10.3531 17.5 11.4438 17.5H21.4618C22.5554 17.5 23.5023 16.7404 23.7395 15.6729L25.6668 7" stroke="#A1A7B1" stroke-width="2" stroke-linecap="round" stroke-linejoin="round"/>
<path d="M25.6668 7H7.5835" stroke="#A1A7B1" stroke-width="2" stroke-linecap="round" stroke-linejoin="round"/>
</svg>
