<svg width="24" height="21" viewBox="0 0 24 21" fill="none" xmlns="http://www.w3.org/2000/svg">
<path d="M0 2.8C0 1.2536 1.34315 0 3 0H13.5C15.1569 0 16.5 1.2536 16.5 2.8V8.4C16.5 9.9464 15.1569 11.2 13.5 11.2H10.5L6 15.4V11.2H3C1.34315 11.2 0 9.9464 0 8.4V2.8Z" fill="#1046B3"/>
<path d="M19.5 5.6V10C19.5 12.2091 17.7091 14 15.5 14H11.7426L9.09259 16.4734C9.51231 16.6819 9.99137 16.8 10.5 16.8H13.5L18 21V16.8H21C22.6569 16.8 24 15.5464 24 14V8.4C24 6.8536 22.6569 5.6 21 5.6H19.5Z" fill="#1046B3"/>
</svg>
