<svg width="157" height="157" viewBox="0 0 157 157" fill="none" xmlns="http://www.w3.org/2000/svg">
<path fill-rule="evenodd" clip-rule="evenodd" d="M78.5 0C121.855 0 157 35.1453 157 78.5C157 121.852 121.855 157 78.5 157C35.1453 157 0 121.855 0 78.5C0 35.1453 35.1453 0 78.5 0Z" fill="#FEFEFE"/>
<path d="M98.8697 46.0691H56.5753C54.3442 46.0691 52.5349 47.8784 52.5349 50.1095V104.999C52.5349 107.23 54.3442 109.039 56.5753 109.039H98.8697C101.103 109.039 102.91 107.23 102.91 104.999V50.1095C102.91 47.8784 101.101 46.0691 98.8697 46.0691Z" fill="#1046B3"/>
<path d="M66.8379 51.3773H56.0432V58.5738H66.8379V51.3773Z" fill="white"/>
<path d="M97.8752 65.4115H56.1335V67.9291H97.8752V65.4115Z" fill="white"/>
<path d="M97.8752 72.0665H56.1335V74.5864H97.8752V72.0665Z" fill="white"/>
<path d="M97.8752 78.7238H56.1335V81.2437H97.8752V78.7238Z" fill="white"/>
<path d="M97.8752 85.3811H56.1335V87.901H97.8752V85.3811Z" fill="white"/>
<path d="M97.8752 92.0384H56.1335V94.5583H97.8752V92.0384Z" fill="white"/>
<path d="M103.452 120.425C110.594 120.425 116.383 114.636 116.383 107.494C116.383 100.352 110.594 94.5628 103.452 94.5628C96.3095 94.5628 90.5208 100.352 90.5208 107.494C90.5208 114.636 96.3118 120.425 103.452 120.425Z" fill="#1046B3"/>
<path d="M103.454 107.494L108.627 112.667M103.454 107.494L108.627 102.321M103.454 107.494L98.281 112.667M103.454 107.494L98.281 102.321" stroke="white" stroke-width="2.0013" stroke-miterlimit="22.9256" stroke-linecap="round" stroke-linejoin="round"/>
</svg>
