<svg width="157" height="157" viewBox="0 0 157 157" fill="none" xmlns="http://www.w3.org/2000/svg">
<path fill-rule="evenodd" clip-rule="evenodd" d="M78.5 0C121.855 0 157 35.1453 157 78.5C157 121.852 121.855 157 78.5 157C35.1453 157 0 121.855 0 78.5C0 35.1453 35.1453 0 78.5 0Z" fill="#FEFEFE"/>
<path d="M98.8697 46.8773H56.5753C54.3442 46.8773 52.5349 48.6866 52.5349 50.9177V105.807C52.5349 108.038 54.3442 109.847 56.5753 109.847H98.8697C101.103 109.847 102.91 108.038 102.91 105.807V50.9177C102.91 48.6866 101.101 46.8773 98.8697 46.8773Z" fill="#1046B3"/>
<path d="M66.8354 52.1855H56.0408V59.382H66.8354V52.1855Z" fill="white"/>
<path d="M97.8725 66.2198H56.1309V68.7374H97.8725V66.2198Z" fill="white"/>
<path d="M97.8725 72.8771H56.1309V75.3947H97.8725V72.8771Z" fill="white"/>
<path d="M97.8725 79.5344H56.1309V82.052H97.8725V79.5344Z" fill="white"/>
<path d="M97.8725 86.1893H56.1309V88.7092H97.8725V86.1893Z" fill="white"/>
<path d="M97.8725 92.8466H56.1309V95.3665H97.8725V92.8466Z" fill="white"/>
<path d="M116.047 108.316C116.044 111.429 114.919 114.438 112.875 116.789C110.831 119.14 108.009 120.674 104.925 121.109C101.841 121.545 98.7029 120.852 96.0905 119.16C93.4759 117.468 91.5583 114.889 90.6943 111.898C89.828 108.907 90.0716 105.703 91.3778 102.877C92.684 100.05 94.967 97.7894 97.8073 96.5126C100.647 95.2335 103.853 95.0237 106.836 95.9193C109.818 96.8149 112.376 98.7572 114.043 101.388C115.352 103.461 116.049 105.863 116.047 108.316Z" fill="#1046B3"/>
<path d="M110.434 104.587L101.067 113.953C100.264 112.71 95.7949 106.939 95.7949 106.939C96.3679 106.36 96.9793 105.821 97.6245 105.324L101.331 110.267L108.94 102.658C109.498 103.253 109.998 103.898 110.434 104.589V104.587Z" fill="white"/>
</svg>
