<svg width="150" height="166" viewBox="0 0 150 166" fill="none" xmlns="http://www.w3.org/2000/svg">
<path d="M93 165.75H59C59 162.766 60.194 159.905 62.3194 157.795C64.4448 155.685 67.3275 154.5 70.3333 154.5V87H36.3333V70.125H115.667V87H81.6666V154.5C84.6724 154.5 87.5551 155.685 89.6805 157.795C91.8059 159.905 93 162.766 93 165.75ZM149.667 53.25V165.75H138.333V126.375H110V165.75H98.6666V120.75C98.6666 117.766 99.8607 114.905 101.986 112.795C104.112 110.685 106.994 109.5 110 109.5H138.333V53.25H149.667Z" fill="#F84C0A"/>
<path d="M149.667 165.75V53.25H138.333V109.5H110C106.994 109.5 104.112 110.685 101.986 112.795C99.8607 114.905 98.6666 117.766 98.6666 120.75V165.75H110V126.375H138.333V165.75H149.667Z" fill="#F84C0A"/>
<path d="M-1.43051e-06 166V53L11.3333 53V109.5H39.6667C42.6725 109.5 45.5551 110.691 47.6805 112.81C49.8059 114.929 51 117.803 51 120.8V166H39.6666L39.6667 126.45H11.3333V166H-1.43051e-06Z" fill="#F84C0A"/>
<path d="M106.182 0H44.8182C43.0099 0 41.2757 0.718905 39.997 1.99857C38.7183 3.27823 38 5.01382 38 6.82353V51.1765C38 52.9862 38.7183 54.7218 39.997 56.0014C41.2757 57.2811 43.0099 58 44.8182 58H106.182C107.99 58 109.724 57.2811 111.003 56.0014C112.282 54.7218 113 52.9862 113 51.1765V6.82353C113 5.01382 112.282 3.27823 111.003 1.99857C109.724 0.718905 107.99 0 106.182 0ZM44.8182 51.1765V6.82353H72.0909V51.1765H44.8182ZM106.182 51.1765H78.9091V6.82353H106.182V51.1765ZM82.3182 18.7647H102.773V23.8824H82.3182V18.7647ZM82.3182 27.2941H102.773V32.4118H82.3182V27.2941ZM82.3182 35.8235H102.773V40.9412H82.3182V35.8235Z" fill="#F84C0A"/>
</svg>
