<svg width="79" height="92" viewBox="0 0 79 92" fill="none" xmlns="http://www.w3.org/2000/svg">
<path d="M57.3312 0H5.00024C2.23882 0 0.000244141 2.23857 0.000244141 4.99999V72.9137C0.000244141 75.6751 2.23882 77.9137 5.00025 77.9137H57.3312C60.0926 77.9137 62.3312 75.6751 62.3312 72.9137V5C62.3312 2.23858 60.0926 0 57.3312 0Z" fill="#AEBCC5"/>
<path d="M17.6975 6.56696H4.34082V15.4714H17.6975V6.56696Z" fill="white"/>
<path d="M56.099 23.9308H4.45337V27.0473H56.099V23.9308Z" fill="white"/>
<path d="M56.099 32.1672H4.45337V35.2837H56.099V32.1672Z" fill="white"/>
<path d="M56.099 40.4039H4.45337V43.5204H56.099V40.4039Z" fill="white"/>
<path d="M56.099 48.6404H4.45337V51.7569H56.099V48.6404Z" fill="white"/>
<path d="M56.099 56.877H4.45337V59.9935H56.099V56.877Z" fill="white"/>
<path d="M78.5832 76.0152C78.5795 79.8683 77.1855 83.5907 74.6573 86.4984C72.1291 89.406 68.6365 91.3037 64.8213 91.8427C61.006 92.3816 57.1244 91.5257 53.8897 89.4321C50.655 87.3385 48.2844 84.148 47.2136 80.4466C46.1427 76.7453 46.4436 72.7819 48.0608 69.2846C49.678 65.7873 52.5029 62.991 56.0166 61.4096C59.5302 59.8282 63.4966 59.568 67.1867 60.6766C70.8769 61.7852 74.0431 64.1883 76.1035 67.4442C77.7239 70.0093 78.5837 72.9812 78.5832 76.0152Z" fill="#00C67E"/>
<path d="M76.1031 67.4444L60.3089 83.2356C59.3163 81.6988 53.7859 74.5567 53.7859 74.5567C54.4946 73.8404 55.251 73.1727 56.0497 72.5583L60.6356 78.673L74.2535 65.0551C74.9441 65.7913 75.5634 66.5913 76.1031 67.4444Z" fill="white"/>
</svg>
