<svg width="157" height="157" viewBox="0 0 157 157" fill="none" xmlns="http://www.w3.org/2000/svg">
<path fill-rule="evenodd" clip-rule="evenodd" d="M78.5 0C121.855 0 157 35.1453 157 78.5C157 121.852 121.855 157 78.5 157C35.1453 157 0 121.855 0 78.5C0 35.1453 35.1453 0 78.5 0Z" fill="#FEFEFE"/>
<path d="M99.6779 46.8774H57.3835C55.1524 46.8774 53.3431 48.6867 53.3431 50.9178V105.807C53.3431 108.038 55.1524 109.848 57.3835 109.848H99.6779C101.911 109.848 103.718 108.038 103.718 105.807V50.9178C103.718 48.6867 101.909 46.8774 99.6779 46.8774Z" fill="#1046B3"/>
<path d="M67.6437 52.1855H56.849V59.382H67.6437V52.1855Z" fill="white"/>
<path d="M98.6809 66.2197H56.9392V68.7374H98.6809V66.2197Z" fill="white"/>
<path d="M98.6809 72.8772H56.9392V75.3948H98.6809V72.8772Z" fill="white"/>
<path d="M98.6809 79.5344H56.9392V82.0521H98.6809V79.5344Z" fill="white"/>
<path d="M98.6809 86.1895H56.9392V88.7093H98.6809V86.1895Z" fill="white"/>
<path d="M98.6809 92.8467H56.9392V95.3666H98.6809V92.8467Z" fill="white"/>
</svg>
