<svg width="79" height="92" viewBox="0 0 79 92" fill="none" xmlns="http://www.w3.org/2000/svg">
<path d="M57.3312 0H5.00024C2.23882 0 0.000244141 2.23857 0.000244141 4.99999V72.9137C0.000244141 75.6751 2.23882 77.9137 5.00025 77.9137H57.3312C60.0926 77.9137 62.3312 75.6751 62.3312 72.9137V5C62.3312 2.23858 60.0926 0 57.3312 0Z" fill="#AEBCC5"/>
<path d="M17.6975 6.56696H4.34082V15.4714H17.6975V6.56696Z" fill="white"/>
<path d="M56.099 23.9308H4.45337V27.0473H56.099V23.9308Z" fill="white"/>
<path d="M56.099 32.1672H4.45337V35.2837H56.099V32.1672Z" fill="white"/>
<path d="M56.099 40.4039H4.45337V43.5204H56.099V40.4039Z" fill="white"/>
<path d="M56.099 48.6404H4.45337V51.7569H56.099V48.6404Z" fill="white"/>
<path d="M56.099 56.877H4.45337V59.9935H56.099V56.877Z" fill="white"/>
<path d="M63.0002 92C71.8368 92 79.0002 84.8366 79.0002 76C79.0002 67.1634 71.8368 60 63.0002 60C54.1637 60 47.0002 67.1634 47.0002 76C47.0002 84.8366 54.1637 92 63.0002 92Z" fill="#F74B4B"/>
<path d="M63.0006 76.0001L69.4006 82.4001M69.4006 69.6001L63.0006 76.0001L69.4006 69.6001ZM63.0006 76.0001L56.6006 82.4001L63.0006 76.0001ZM63.0006 76.0001L56.6006 69.6001L63.0006 76.0001Z" stroke="white" stroke-width="2" stroke-linecap="round" stroke-linejoin="round"/>
</svg>
