<svg width="51" height="64" viewBox="0 0 51 64" fill="none" xmlns="http://www.w3.org/2000/svg">
<path d="M46.6779 0.877441H4.38354C2.15241 0.877441 0.34314 2.68671 0.34314 4.91784V59.8072C0.34314 62.0383 2.15241 63.8476 4.38354 63.8476H46.6779C48.9113 63.8476 50.7183 62.0383 50.7183 59.8072V4.91784C50.7183 2.68671 48.9091 0.877441 46.6779 0.877441Z" fill="#1046B3"/>
<path d="M14.6437 6.18555H3.849V13.382H14.6437V6.18555Z" fill="white"/>
<path d="M45.6809 20.2197H3.93921V22.7374H45.6809V20.2197Z" fill="white"/>
<path d="M45.6809 26.8772H3.93921V29.3948H45.6809V26.8772Z" fill="white"/>
<path d="M45.6809 33.5344H3.93921V36.0521H45.6809V33.5344Z" fill="white"/>
<path d="M45.6809 40.1895H3.93921V42.7093H45.6809V40.1895Z" fill="white"/>
<path d="M45.6809 46.8467H3.93921V49.3666H45.6809V46.8467Z" fill="white"/>
</svg>
