<svg width="20" height="20" viewBox="0 0 20 20" fill="none" xmlns="http://www.w3.org/2000/svg">
<path d="M0 1.25C0 0.559644 0.559644 0 1.25 0H3.94109C4.55214 0 5.07363 0.441766 5.17408 1.0445L6.09822 6.58934C6.18844 7.13063 5.91507 7.66746 5.42425 7.91288L3.48907 8.88046C4.88445 12.3479 7.6521 15.1156 11.1195 16.5109L12.0871 14.5758C12.3325 14.0849 12.8694 13.8116 13.4107 13.9018L18.9555 14.8259C19.5582 14.9264 20 15.4479 20 16.0589V18.75C20 19.4404 19.4404 20 18.75 20H16.25C7.27537 20 0 12.7246 0 3.75V1.25Z" fill="#1046B3"/>
</svg>
