<svg width="20" height="20" viewBox="0 0 20 20" fill="none" xmlns="http://www.w3.org/2000/svg">
<path d="M10 19C14.9706 19 19 14.9706 19 10C19 5.02944 14.9706 1 10 1C5.02944 1 1 5.02944 1 10C1 14.9706 5.02944 19 10 19Z" stroke="white" stroke-width="2" stroke-linecap="round" stroke-linejoin="round"/>
<path d="M10 15V15.01" stroke="white" stroke-width="2" stroke-linecap="round" stroke-linejoin="round"/>
<path d="M10 11.5C9.98159 11.1754 10.0692 10.8536 10.2495 10.583C10.4299 10.3125 10.6933 10.1079 11 10C11.3759 9.85627 11.7133 9.62725 11.9856 9.33097C12.2579 9.03469 12.4577 8.67923 12.5693 8.2926C12.6809 7.90597 12.7013 7.49871 12.6287 7.10288C12.5562 6.70705 12.3928 6.33346 12.1513 6.01153C11.9099 5.68959 11.597 5.4281 11.2373 5.24763C10.8776 5.06716 10.4809 4.97265 10.0785 4.97154C9.67611 4.97042 9.27893 5.06273 8.91824 5.2412C8.55756 5.41967 8.24323 5.67942 8 6.00001" stroke="white" stroke-width="2" stroke-linecap="round" stroke-linejoin="round"/>
</svg>
