<svg width="21" height="20" viewBox="0 0 21 20" fill="none" xmlns="http://www.w3.org/2000/svg">
<path d="M10.9943 3.44539e-08C9.01652 3.44539e-08 7.08312 0.58649 5.43863 1.6853C3.79413 2.78412 2.51241 4.3459 1.75553 6.17317C0.998657 8.00043 0.800623 10.0111 1.18648 11.9509C1.57233 13.8907 2.52474 15.6725 3.92326 17.0711C5.32179 18.4696 7.10362 19.422 9.04343 19.8079C10.9832 20.1937 12.9939 19.9957 14.8212 19.2388C16.6484 18.4819 18.2102 17.2002 19.309 15.5557C20.4078 13.9112 20.9943 11.9778 20.9943 10C20.9944 8.68675 20.7359 7.38634 20.2333 6.17304C19.7308 4.95973 18.9942 3.8573 18.0656 2.92869C17.137 2.00008 16.0346 1.26349 14.8213 0.760983C13.608 0.258474 12.3076 -0.000108979 10.9943 3.44539e-08ZM14.1738 15.1525C14.1364 15.2458 14.0795 15.33 14.0068 15.3996C13.9342 15.4691 13.8475 15.5223 13.7526 15.5556C13.6577 15.5889 13.5568 15.6015 13.4566 15.5926C13.3565 15.5837 13.2594 15.5535 13.1718 15.504L10.4572 13.3946L8.71485 15.002C8.67442 15.0319 8.62713 15.0511 8.57733 15.0579C8.52752 15.0647 8.47681 15.0589 8.42985 15.0409L8.76385 12.0525L8.77454 12.061L8.78137 12.002C8.78137 12.002 13.6664 7.55445 13.8654 7.36496C14.0668 7.17596 14.0004 7.13496 14.0004 7.13496C14.0118 6.90443 13.6388 7.13496 13.6388 7.13496L7.16633 11.299L4.47084 10.381C4.47084 10.381 4.05684 10.2325 4.01784 9.906C3.97684 9.582 4.48433 9.406 4.48433 9.406L15.2013 5.14849C15.2013 5.14849 16.0823 4.75597 16.0823 5.406L14.1738 15.1525Z" fill="#1046B3"/>
</svg>
